# Blender 5.1.0
# www.blender.org
mtllib player.mtl
o Cube
v -0.198757 0.202841 -0.039571
v 0.000000 -0.150812 -0.062078
v -0.195250 0.223014 -0.366423
v 0.262646 0.232307 -0.079691
v 0.303746 0.210732 -0.302114
v 0.400158 0.043201 -0.373944
v -0.331316 0.023742 -0.246877
v 0.279961 0.001588 -0.119810
v 0.000000 0.194681 0.073151
v 0.000000 -0.267517 -0.785649
v 0.000000 0.261278 -0.344133
v 0.276266 0.235358 -0.491175
v -0.351098 0.143388 0.106588
v -0.276266 0.235358 -0.491175
v 0.351098 0.143388 0.106588
v -0.614166 0.198211 -0.357289
v 0.614166 0.198211 -0.357289
v 0.000000 0.000641 1.003642
v 0.000000 0.318762 -0.930752
vn 0.1214 0.9864 0.1108
vn 0.2071 0.9576 0.2003
vn 0.2155 0.9577 0.1907
vn 0.1989 0.9570 0.2112
vn -0.0641 0.9910 0.1174
vn -0.0706 0.9899 0.1228
vn -0.0660 0.9907 0.1186
vn -0.1226 0.9716 0.2026
vn -0.0527 0.9878 0.1463
vn -0.0533 0.9879 0.1456
vn -0.0536 0.9879 0.1454
vn 0.0613 0.9909 0.1202
vn -0.1007 0.9792 0.1763
vn -0.1016 0.9795 0.1737
vn -0.1013 0.9794 0.1747
vn -0.1685 0.9847 0.0446
vn -0.1666 0.9848 0.0500
vn -0.1655 0.9844 0.0591
vn 0.1226 0.9716 0.2026
vn -0.0836 0.9865 0.1405
vn -0.0816 0.9874 0.1357
vn -0.0829 0.9869 0.1381
vn -0.7821 -0.2601 -0.5663
vn -0.7780 -0.2501 -0.5764
vn -0.7797 -0.2545 -0.5721
vn 0.5738 -0.8071 0.1392
vn -0.9668 -0.1133 0.2292
vn -0.9679 -0.1142 0.2239
vn -0.9504 -0.1057 0.2926
vn 0.9867 -0.1585 -0.0375
vn 0.9828 -0.1728 -0.0653
vn 0.9733 -0.0557 0.2227
vn 0.7086 -0.2686 -0.6524
vn 0.7134 -0.2721 -0.6458
vn 0.7108 -0.2702 -0.6494
vn 0.1366 0.9877 -0.0762
vn 0.1367 0.9876 -0.0767
vn 0.1363 0.9878 -0.0756
vn 0.2569 0.9656 0.0405
vn 0.2558 0.9660 0.0384
vn 0.2570 0.9656 0.0407
vn -0.1139 0.9561 0.2701
vn 0.6833 -0.3634 -0.6333
vn 0.6894 -0.3591 -0.6292
vn 0.7047 -0.3479 -0.6183
vn 0.9722 -0.2217 -0.0756
vn 0.9403 -0.2036 0.2728
vn 0.9498 -0.2017 0.2393
vn -0.3171 0.9468 0.0544
vn -0.3168 0.9469 0.0543
vn -0.3170 0.9469 0.0543
vn 0.0383 0.9985 0.0387
vn 0.0555 0.9978 0.0356
vn 0.0619 0.9975 0.0339
vn -0.0580 0.9830 0.1740
vn -0.0581 0.9830 0.1740
vn -0.0576 0.9830 0.1742
vn -0.7057 -0.2894 -0.6468
vn -0.7408 -0.2631 -0.6181
vn -0.7423 -0.2620 -0.6167
vn 0.0824 0.8756 0.4760
vn 0.0844 0.8753 0.4762
vn 0.0843 0.8753 0.4762
vn -0.9307 0.1474 -0.3347
vn -0.8955 0.1788 -0.4075
vn -0.8554 0.1994 -0.4782
vn 0.9290 -0.1445 0.3406
vn 0.3142 -0.3385 -0.8869
vn -0.7753 -0.4983 0.3881
vn -0.7709 -0.4993 0.3955
vn -0.7593 -0.5024 0.4135
vn -0.9290 -0.1445 0.3406
vn -0.9290 -0.1445 0.3407
vn -0.2366 -0.5671 -0.7889
vn -0.2572 -0.5693 -0.7809
vn -0.2469 -0.5680 -0.7851
vn 0.6221 -0.7364 0.2658
vn 0.8407 0.2484 -0.4812
vn -0.3242 0.9449 0.0455
vn -0.3168 0.9481 0.0288
vn -0.3005 0.9538 0.0050
vt 0.569689 0.225805
vt 0.457986 0.264329
vt 0.429697 0.225223
vt 0.397931 0.822627
vt 0.389066 0.956474
vt 0.355902 0.823799
vt 0.675641 0.823799
vt 0.625388 0.756933
vt 0.660182 0.736860
vt 0.510212 0.766589
vt 0.294533 0.650653
vt 0.517188 0.570366
vt 0.642477 0.956474
vt 0.633612 0.822627
vt 0.406155 0.756933
vt 0.371361 0.736860
vt 0.429885 0.955374
vt 0.515772 0.821781
vt 0.515772 0.954859
vt 0.601658 0.955374
vt 0.743911 0.659270
vt 0.670317 0.264329
vt 0.709424 0.225223
vt 0.710853 0.153090
vt 0.569714 0.153607
vt 0.972185 0.735586
vt 0.882216 0.810991
vt 0.884813 0.688697
vt 0.209728 0.792111
vt 0.110740 0.657075
vt 0.225626 0.638010
vt 0.746115 0.804735
vt 0.756107 0.652225
vt 0.431125 0.153090
vt 0.371600 0.720303
vt 0.474942 0.055763
vt 0.952990 0.629390
vt 0.660581 0.055763
vt 0.646430 0.725667
vt 0.691979 0.467962
vt 0.966017 0.805340
vt 0.102460 0.779974
vt 0.325537 0.474099
vt 0.016734 0.777480
vt 0.016302 0.709726
s 1
usemtl Material.001
f 19/1/1 5/2/1 12/3/1
f 4/4/2 15/5/3 17/6/4
f 16/7/5 3/8/6 14/9/7
f 9/10/8 13/11/8 18/12/8
f 13/13/9 3/14/10 16/7/11
f 5/15/12 17/6/12 12/16/12
f 4/17/13 11/18/14 9/19/15
f 1/20/16 11/18/17 3/14/18
f 15/21/19 9/10/19 18/12/19
f 3/22/20 19/1/21 14/23/22
f 7/24/23 19/1/24 10/25/25
f 6/26/26 17/27/26 8/28/26
f 13/29/27 7/30/28 2/31/29
f 8/28/30 15/32/31 2/33/32
f 19/1/33 6/34/34 10/25/35
f 11/18/36 4/4/37 5/15/38
f 19/1/39 11/2/40 5/2/41
f 9/10/42 1/35/42 13/11/42
f 10/25/43 6/34/44 2/36/45
f 2/37/46 6/26/47 8/28/48
f 13/13/49 1/20/50 3/14/51
f 5/15/52 4/4/53 17/6/54
f 1/20/55 9/19/56 11/18/57
f 2/38/58 7/24/59 10/25/60
f 15/21/61 4/39/62 9/10/63
f 7/24/64 14/23/65 19/1/66
f 2/40/67 15/21/67 18/12/67
f 6/26/68 12/41/68 17/27/68
f 13/29/69 16/42/70 7/30/71
f 18/12/72 13/11/72 2/43/73
f 16/42/74 14/44/75 7/45/76
f 8/28/77 17/27/77 15/32/77
f 19/1/78 12/3/78 6/34/78
f 19/1/79 3/22/80 11/22/81
